<?xml version="1.0" encoding="UTF-8"?>
<svg xmlns="http://www.w3.org/2000/svg" xmlns:xlink="http://www.w3.org/1999/xlink" version="1.1" viewBox="0 0 841.89 595.28">
  <defs>
    <style>
      .cls-1 {
        fill: none;
      }

      .cls-2 {
        fill: #ae2f28;
      }

      .cls-3 {
        fill: #115f37;
      }

      .cls-4 {
        fill: #e9ab18;
      }

      .cls-5 {
        fill: #fff;
      }

      .cls-6 {
        fill: #008060;
      }

      .cls-7 {
        fill: #eea816;
      }

      .cls-8 {
        fill: #c12324;
      }

      .cls-9 {
        fill: #141a1d;
      }

      .cls-10 {
        clip-path: url(#clippath);
      }
    </style>
    <clipPath id="clippath">
      <path class="cls-1" d="M495.38,250.74v71.2h-125.34v-71.2h37.86c1.27,2.3,2.68,4.6,4.23,6.89,7,10.35,15.06,17.83,19.23,21.36.79.66,1.92.66,2.71,0,4.17-3.53,12.22-11.01,19.23-21.36,1.55-2.29,2.96-4.59,4.22-6.89h37.86Z"/>
    </clipPath>
  </defs>
  <!-- Generator: Adobe Illustrator 28.7.7, SVG Export Plug-In . SVG Version: 1.2.0 Build 194)  -->
  <g>
    <g id="Layer_1">
      <g>
        <g>
          <g>
            <circle class="cls-6" cx="225.99" cy="431.34" r="9.72"/>
            <circle class="cls-6" cx="253.65" cy="431.34" r="9.72"/>
          </g>
          <path class="cls-6" d="M300.31,379.83v-52.36h22.93v45.11c0,10.86,4.98,16.45,13.88,16.45s14.33-5.58,14.33-16.45v-45.11h22.93v80.87h-22.93v-11.47c-5.28,6.79-12.22,12.98-23.69,12.98-17.5,0-27.46-11.32-27.46-30.03Z"/>
          <path class="cls-6" d="M390.08,385.11v-.3c0-17.5,13.43-25.8,32.59-25.8,8.3,0,13.88,1.36,19.77,3.32v-1.36c0-9.66-5.88-14.79-17.35-14.79-8.9,0-14.94,1.51-22.33,4.38l-5.73-17.5c8.9-3.77,17.65-6.49,31.38-6.49,12.67,0,21.43,3.17,27.31,9.05,6.03,6.04,8.75,14.94,8.75,25.8v46.92h-22.18v-8.75c-5.58,6.19-13.13,10.26-24.44,10.26-15.24,0-27.76-8.6-27.76-24.74ZM442.74,379.83v-4.07c-4.07-1.81-9.05-3.02-14.64-3.02-9.81,0-15.84,3.92-15.84,11.17v.3c0,6.19,5.13,9.81,12.52,9.81,10.86,0,17.96-5.73,17.96-14.18Z"/>
          <path class="cls-6" d="M477.89,397.63l9.81-15.09c8.9,6.49,17.8,9.66,25.5,9.66,6.64,0,9.66-2.41,9.66-6.04v-.3c0-4.98-7.85-6.49-16.75-9.35-11.32-3.17-24.14-8.6-24.14-24.29v-.3c0-16.45,13.28-25.65,29.57-25.65,10.26,0,21.27,3.47,30.18,9.35l-8.75,15.84c-8-4.68-15.99-7.54-21.88-7.54s-8.45,2.41-8.45,5.58v.3c0,4.22,7.69,6.94,16.45,9.66,11.32,3.62,24.44,9.2,24.44,23.99v.3c0,17.95-13.43,26.1-30.93,26.1-11.47,0-23.84-3.77-34.7-12.22Z"/>
          <path class="cls-6" d="M556.04,368.36v-.3c0-23.24,18.71-42.1,43.91-42.1s43.61,18.41,43.61,41.79v.3c0,23.24-18.71,42.1-43.91,42.1s-43.61-18.41-43.61-41.79ZM620.92,368.36v-.3c0-11.92-8.6-22.33-21.27-22.33s-20.97,9.96-20.97,22.03v.3c0,11.92,8.6,22.33,21.27,22.33s20.97-9.96,20.97-22.03Z"/>
          <path class="cls-6" d="M280.54,364.84c0,6.93-.09,13.86.02,20.79.2,13.22-5.6,23-16.87,29.62-6.27,3.69-13.13,5.54-20.39,6.17-9.55.83-18.63-.72-27.16-5.05-9.89-5.02-16.18-12.82-17.73-24.05-.13-.98-.1-2.01.05-2.98.31-1.98,1.48-2.97,3.5-2.97,6.58-.02,13.16-.03,19.73,0,2.35.01,4.21,1.4,4.47,3.7.78,6.87,7.88,10.93,14.9,10.44,6.12-.43,11.03-5.28,11.9-11.96.24-1.81.35-3.62.35-5.44-.02-11.81-.03-23.61-.02-35.42,0-4.5-1.75-7.97-5.48-10.6-10.85-7.64-21.62-15.39-32.42-23.1-3.75-2.68-4.2-5.85-1.49-9.68,2.61-3.69,5.15-7.43,7.71-11.16,2.24-3.26,5.77-3.94,9.03-1.64,12.91,9.09,25.87,18.13,38.69,27.36,7.43,5.35,10.76,13.1,11.12,22.01.32,7.97.07,15.97.07,23.96Z"/>
        </g>
        <g>
          <path class="cls-8" d="M432.51,163.61c-10.03,0-19.44,2.67-27.55,7.33-1.9,1.09-3.73,2.3-5.48,3.6-.43.32-.85.64-1.26.96-12.83,10.14-21.06,25.84-21.06,43.46,0,11.3,2.12,21.96,5.54,31.78,10.97,31.58,35.29,54.58,45.33,63.08,2.29,1.93,5.5,2.16,8,.67.15-.08.3-.17.45-.28.17-.12.34-.25.5-.39,10.04-8.5,34.37-31.5,45.34-63.08,3.42-9.82,5.54-20.48,5.54-31.78,0-30.57-24.78-55.35-55.35-55.35ZM412.13,257.63c-1.55-2.29-2.96-4.59-4.23-6.89-5.74-10.39-8.63-20.91-8.63-31.35,0-18.44,15-33.44,33.44-33.44s33.45,15,33.45,33.44c0,10.44-2.9,20.96-8.64,31.35-1.26,2.3-2.67,4.6-4.22,6.89-7.01,10.35-15.06,17.83-19.23,21.36-.79.66-1.92.66-2.71,0-4.17-3.53-12.23-11.01-19.23-21.36Z"/>
          <path d="M432.51,161.22c-9.14,0-17.78,2.13-25.48,5.92-1.1.55-2.18,1.13-3.24,1.74-2.38,1.37-4.66,2.92-6.82,4.61-.84.66-1.66,1.35-2.47,2.05-12.09,10.58-19.73,26.12-19.73,43.42,0,10.6,1.8,21.21,5.38,31.78,3.49,10.3,8.68,20.55,15.53,30.68,11.22,16.59,24.12,28.57,30.81,34.23,1.74,1.47,3.88,2.21,6.02,2.21,1.43,0,2.85-.33,4.16-.99.18-.1.37-.2.55-.3.22-.12.44-.26.66-.41.22-.16.44-.33.65-.51.21-.18.42-.36.65-.55.22-.18.45-.37.68-.58.22-.19.44-.38.67-.58.45-.4.92-.82,1.41-1.26,0,0,0,.01,0,0,1.47-1.33,3.1-2.84,4.83-4.52t.01,0c6.67-6.49,14.99-15.57,22.55-26.74,6.85-10.13,12.04-20.38,15.53-30.68,3.58-10.57,5.38-21.18,5.38-31.78,0-31.84-25.9-57.74-57.74-57.74ZM432.51,166c29.2,0,52.96,23.76,52.96,52.96,0,10.58-1.9,21.2-5.68,31.78-3.33,9.39-8.15,18.73-14.41,28-10.89,16.09-23.39,27.71-29.9,33.23-.01.01-.02.03-.04.03-.18.16-.38.3-.58.41-1.64,1.01-3.76.87-5.28-.41-6.5-5.5-19.04-17.14-29.94-33.26-6.26-9.27-11.08-18.61-14.41-28-3.78-10.58-5.68-21.2-5.68-31.78,0-15.86,7.01-30.13,18.1-39.83h.01c.73-.65,1.49-1.28,2.26-1.88,1.98-1.55,4.06-2.97,6.25-4.22,7.76-4.47,16.76-7.03,26.34-7.03Z"/>
        </g>
        <path class="cls-1" d="M498.74,154.21v96.53h-41.22c5.74-10.39,8.64-20.91,8.64-31.35,0-18.44-15-33.44-33.45-33.44s-33.44,15-33.44,33.44c0,10.44,2.89,20.96,8.63,31.35h-37.86v-96.53h128.7Z"/>
        <g class="cls-10">
          <g>
            <path class="cls-4" d="M432.6,163.55c-10.06,0-19.5,2.69-27.64,7.39-1.9,1.09-3.73,2.3-5.48,3.6-.43.32-.85.64-1.26.96-12.77,10.16-20.97,25.82-20.97,43.4,0,11.33,2.13,22,5.56,31.84,10.98,31.55,35.27,54.53,45.31,63.03,2.26,1.9,5.42,2.14,7.91.72.15-.08.3-.17.45-.28.21-.13.41-.28.6-.44,10.04-8.5,34.33-31.48,45.31-63.03,3.43-9.84,5.56-20.51,5.56-31.84,0-30.57-24.78-55.35-55.35-55.35ZM412.13,257.63c-1.55-2.29-2.96-4.59-4.23-6.89-5.74-10.39-8.63-20.91-8.63-31.35,0-18.44,15-33.44,33.44-33.44s33.45,15,33.45,33.44c0,10.44-2.9,20.96-8.64,31.35-1.26,2.3-2.67,4.6-4.22,6.89-7.01,10.35-15.06,17.83-19.23,21.36-.79.66-1.92.66-2.71,0-4.17-3.53-12.23-11.01-19.23-21.36Z"/>
            <path d="M432.6,161.16c-9.17,0-17.86,2.15-25.57,5.98-1.1.55-2.18,1.13-3.24,1.74-2.38,1.37-4.66,2.92-6.82,4.61-.84.66-1.66,1.35-2.47,2.05-12.03,10.59-19.64,26.1-19.64,43.36,0,10.62,1.81,21.26,5.4,31.84,3.49,10.28,8.67,20.51,15.51,30.62,11.22,16.59,24.12,28.57,30.81,34.23,1.74,1.48,3.88,2.21,6.02,2.21,1.39,0,2.78-.31,4.07-.93.18-.1.37-.2.55-.3.22-.12.44-.26.66-.41.25-.18.5-.37.74-.57.18-.15.37-.31.56-.49.22-.18.45-.37.68-.58.22-.19.44-.38.67-.58.45-.4.92-.81,1.41-1.26,0,0,0,.01,0,0,1.47-1.32,3.09-2.82,4.83-4.52t.01,0c6.69-6.47,15.05-15.58,22.64-26.8,6.84-10.11,12.02-20.34,15.51-30.62,3.59-10.58,5.4-21.22,5.4-31.84,0-31.84-25.9-57.74-57.74-57.74ZM435.48,311.97s-.02.03-.04.03c-.18.16-.38.3-.58.41-1.63.95-3.7.79-5.19-.47-6.5-5.5-19.04-17.14-29.94-33.26-6.26-9.24-11.06-18.57-14.4-27.94-3.78-10.6-5.69-21.24-5.69-31.84,0-15.82,6.97-30.04,18.01-39.77h.01c.73-.65,1.49-1.27,2.26-1.88,1.98-1.55,4.06-2.97,6.25-4.22,7.78-4.51,16.81-7.09,26.43-7.09,29.2,0,52.96,23.76,52.96,52.96,0,10.6-1.91,21.24-5.69,31.84-3.34,9.37-8.14,18.7-14.4,27.94-10.9,16.12-23.44,27.76-29.94,33.26-.01.01-.03.02-.05.03Z"/>
          </g>
        </g>
        <g>
          <path class="cls-5" d="M432.71,183.56c-19.79,0-35.83,16.04-35.83,35.83,0,11.68,3.5,22.29,8.31,31.35,7.9,14.88,19.33,25.59,24.63,30.08,1.67,1.41,4.12,1.41,5.79,0,5.3-4.49,16.73-15.2,24.63-30.08,4.81-9.06,8.31-19.67,8.31-31.35,0-19.79-16.04-35.83-35.84-35.83ZM457.52,250.74c-1.26,2.3-2.67,4.6-4.22,6.89-7.01,10.35-15.06,17.83-19.23,21.36-.79.66-1.92.66-2.71,0-4.17-3.53-12.23-11.01-19.23-21.36-1.55-2.29-2.96-4.59-4.23-6.89-5.74-10.39-8.63-20.91-8.63-31.35,0-18.44,15-33.44,33.44-33.44s33.45,15,33.45,33.44c0,10.44-2.9,20.96-8.64,31.35Z"/>
          <path d="M432.71,181.16c-21.07,0-38.22,17.15-38.22,38.23,0,10.49,2.68,20.99,8,31.35,1.64,3.2,3.54,6.39,5.68,9.56,7.32,10.83,15.74,18.65,20.1,22.34,1.29,1.09,2.87,1.63,4.44,1.63s3.16-.54,4.45-1.63c4.36-3.69,12.77-11.51,20.1-22.34,2.14-3.17,4.04-6.36,5.68-9.56,5.32-10.36,8-20.86,8-31.35,0-21.08-17.15-38.23-38.23-38.23ZM453.3,257.63c-7.01,10.35-15.06,17.83-19.23,21.36-.79.66-1.92.66-2.71,0-4.17-3.53-12.23-11.01-19.23-21.36-1.55-2.29-2.96-4.59-4.23-6.89-5.74-10.39-8.63-20.91-8.63-31.35,0-18.44,15-33.44,33.44-33.44s33.45,15,33.45,33.44c0,10.44-2.9,20.96-8.64,31.35-1.26,2.3-2.67,4.6-4.22,6.89Z"/>
        </g>
        <g>
          <path class="cls-9" d="M446.68,246.4h-.14c-.1,0-.19,0-.29,0-8.27,0-16.53,0-24.8.02-1.86,0-3.52-.47-4.91-1.73,0,0,0,0,0,0-.72-.8-1.33-1.67-1.56-2.74-.47-2.2-.91-4.42-1.36-6.63-.67-3.29-1.33-6.57-2-9.86-.02-.19-.05-.38-.07-.58-.06-.6-.24-1.02-.98-1.04-.52-.01-.93-.4-1.25-.81-1.23-1.58-.48-4.02,1.4-4.63,3.28,0,6.56,0,9.84-.02.24,0,.55.13.7-.21,1.87-2.79,3.72-5.59,5.48-8.45.22-.2.36-.44.46-.71,0,0,0,0,0,0,.35-.52.7-1.03,1.04-1.55.93-1.38,2.01-1.75,3.57-1.22.12.12.24.23.36.35.53.76.39,1.51-.06,2.24-.73,1.17-1.46,2.33-2.19,3.5-1.22,1.76-2.36,3.57-3.48,5.4-.16.18-.35.33-.36.61.07.02.14.05.21.05,4.82,0,9.65,0,14.47,0,.12,0,.26.02.34-.04.09-.06.02-.17-.08-.22-.03-.05-.05-.1-.08-.15,0-.06-.03-.09-.08-.11-1.86-2.92-3.72-5.83-5.58-8.75-.25-.4-.59-.77-.64-1.25-.12-1.14.73-1.97,1.89-1.87,1.09.1,1.88.65,2.46,1.57.93,1.47,1.88,2.92,2.83,4.37.73,1.11,1.46,2.22,2.2,3.32.06.09.12.19.18.28,0,0,0,0,0,0,.26.41.52.81.77,1.22,0,.03,0,.05.04.06.13.23.25.47.38.7.35.62.81.91,1.61.89,3.1-.06,6.2-.02,9.3,0,1.04.2,1.65.85,1.95,1.83.21,1.31,0,2.49-1.05,3.42-1.25.07-1.52.89-1.73,1.97-1,5.15-2.13,10.27-3.13,15.42-.67,3.45-2.87,4.78-4.93,5.27-.25-.02-.5-.02-.73.1ZM450.03,223.97c-1.12-.09-2.24-.06-3.35.02-.35-.13-.72-.1-1.08-.1-6.13,0-12.25-.04-18.38,0-2.15,0-4.31-.09-6.46.11-.06-.02-.12-.03-.18-.05-.04-.02-.08-.06-.13-.06-2.19.01-4.38.03-6.57.04-.18,0-.32.07-.29.23.17.83.13,1.71.61,2.47-.19.67.1,1.3.23,1.93.54,2.8,1.12,5.58,1.69,8.37.31,1.51.63,3.03.94,4.54.34.85.86,1.56,1.64,2.07.26.3.58.47.95.61,1.03.39,2.1.19,3.15.22,5.86,0,11.71,0,17.57,0,.8,0,1.59.04,2.39.02.81-.03,1.64.14,2.44-.12.91.21,1.78.03,2.61-.36,1.74-.81,2.16-2.44,2.51-4.09.34-1.61.61-3.23.97-4.83.58-2.6,1.06-5.21,1.65-7.81.05-.23,0-.48,0-.72.52-.45.31-1.13.53-1.68.2-.5.04-.82-.6-.79-.94.04-1.89,0-2.83,0Z"/>
          <path class="cls-2" d="M422.8,244.35c-1.05-.03-2.12.17-3.15-.22-.37-.14-.7-.31-.95-.61.1-.13.19-.28.3-.4,1.63-1.72,3.23-3.46,4.9-5.13,1.34-1.35,2.51-2.86,3.95-4.1.9-.56,1.48-1.41,2.06-2.26.69-.53,1.06-1.33,1.73-1.89.4-.34.53-.33.85-.01.62.61,1.28,1.18,1.91,1.79.3.29.47.25.75-.05,1.61-1.71,3.25-3.4,4.87-5.1.71-.74,1.4-1.49,2.17-2.32h-16.45c.39.35.68.65,1.01.88.88.61,1.43,1.58,2.4,2.09.76.4.8.79.12,1.32-.56.43-1.02.96-1.47,1.49-.07-.02-.14-.03-.2-.07-.99-.52-1.58-1.57-2.64-2-.56-.7-1.27-1.22-1.99-1.72-.83-.59-1.62-1.21-2.23-2.03,2.15-.2,4.31-.1,6.46-.11,6.13-.03,12.25,0,18.38,0,.36,0,.73-.03,1.08.1-.13.17-.26.35-.4.51-.81.9-1.73,1.69-2.51,2.6-1.12,1.31-2.37,2.49-3.51,3.78-.86.98-1.79,1.9-2.68,2.85-.1.11-.33.29-.13.42.57.38.9,1.09,1.63,1.25.11.21.24.39.41.56.63.6,1.4,1.03,1.95,1.71-.56.59-1.12,1.18-1.69,1.78-.19-.01-.34-.08-.5-.22-.72-.63-1.42-1.27-2.2-1.81-.68-.47-1.18-1.16-1.95-1.49-.62-.56-1.25-1.11-1.87-1.67-.3-.28-.56-.27-.86.04-.55.57-1.13,1.1-1.7,1.65-.52.5-1.05.99-1.56,1.51-.2.21-.45.43-.37.79-.64.26-1.12.78-1.52,1.27-1.16,1.4-2.48,2.63-3.72,3.95-.26.27-.63.46-.7.89Z"/>
          <path class="cls-7" d="M439.75,239.45c.56-.59,1.12-1.18,1.69-1.78.11-.09.23-.17.33-.27,3.28-3.29,6.56-6.58,9.86-9.86.4-.4.74-.89,1.31-1.1,0,.24.06.49,0,.72-.59,2.59-1.07,5.21-1.65,7.81-.36,1.6-.64,3.23-.97,4.83-.35,1.65-.77,3.28-2.51,4.09-.83.39-1.69.57-2.61.36-.57-.77-1.38-1.26-2.08-1.87-1.12-.98-2.24-1.95-3.36-2.92Z"/>
          <path class="cls-7" d="M422.8,244.35c.06-.43.44-.61.7-.89,1.24-1.32,2.56-2.55,3.72-3.95.41-.49.89-1.01,1.52-1.27.58.55,1.16,1.09,1.73,1.64.31.3.59.34.91-.03.36-.42.8-.77,1.13-1.21.42-.54.75-.46,1.22-.05,1.51,1.31,3.08,2.56,4.56,3.9.69.62,1.51,1.09,2.07,1.85-5.86,0-11.71,0-17.57,0Z"/>
          <path class="cls-7" d="M420.76,223.99c.61.82,1.4,1.44,2.23,2.03.71.51,1.43,1.03,1.99,1.72-.45.47-.9.93-1.35,1.4-1.24,1.3-2.53,2.56-3.71,3.9-1,1.14-2.06,2.21-3.07,3.34-.19.22-.34.55-.72.53-.57-2.79-1.15-5.58-1.69-8.37-.12-.63-.41-1.26-.23-1.93.88.52,1.58,1.23,2.26,1.99,1.25,1.39,1.46,1.36,2.6-.04.35-.43,1.14-.74.98-1.3-.13-.48-.78-.82-1.2-1.22-.7-.65-1.4-1.29-2.1-1.94.02-.05.05-.11.07-.16h3.77c.06.02.12.03.18.05Z"/>
          <path class="cls-3" d="M416.12,236.92c.38.02.53-.31.72-.53,1.01-1.13,2.07-2.2,3.07-3.34,1.18-1.35,2.47-2.61,3.71-3.9.45-.47.9-.93,1.35-1.4,1.06.43,1.65,1.48,2.64,2,.06.03.13.05.2.07.59.72,1.35,1.25,2.09,1.8-.57.86-1.16,1.7-2.06,2.26-.61-.54-1.21-1.09-1.82-1.62-.21-.19-.35-.1-.53.1-1.52,1.65-3.06,3.27-4.58,4.92-1.29,1.39-2.69,2.68-3.86,4.18-.31-1.51-.63-3.03-.94-4.54Z"/>
          <path class="cls-3" d="M452.93,226.44c-.57.21-.9.7-1.31,1.1-3.29,3.28-6.57,6.57-9.86,9.86-.1.1-.22.18-.33.27-.55-.68-1.32-1.12-1.95-1.71-.18-.17-.31-.35-.41-.56.27-.04.39-.27.55-.44,1.78-1.88,3.55-3.75,5.33-5.63,1.69-1.78,3.38-3.57,5.07-5.35.94,0,1.89.04,2.83,0,.65-.03.8.29.6.79-.22.55-.01,1.23-.53,1.68Z"/>
          <path class="cls-3" d="M440.37,244.35c-.56-.76-1.38-1.23-2.07-1.85-1.49-1.34-3.06-2.58-4.56-3.9-.47-.41-.8-.49-1.22.05-.34.43-.78.79-1.13,1.21-.31.37-.59.33-.91.03-.58-.55-1.16-1.1-1.73-1.64-.08-.36.17-.58.37-.79.5-.52,1.04-1.01,1.56-1.51.6.73,1.43,1.2,2.09,1.87.17.17.36.19.56-.03.58-.63,1.18-1.24,1.78-1.86.78.33,1.28,1.02,1.95,1.49.78.54,1.49,1.18,2.2,1.81.16.14.31.21.5.22,1.12.97,2.24,1.95,3.36,2.92.7.61,1.52,1.11,2.08,1.87-.8.26-1.63.09-2.44.12-.8.03-1.59,0-2.39-.02Z"/>
          <path class="cls-7" d="M450.03,223.97c-1.69,1.78-3.38,3.57-5.07,5.35-1.78,1.88-3.55,3.75-5.33,5.63-.16.17-.28.4-.55.44-.74-.16-1.06-.87-1.63-1.25-.19-.13.03-.31.13-.42.89-.95,1.82-1.87,2.68-2.85,1.14-1.29,2.39-2.47,3.51-3.78.77-.91,1.7-1.71,2.51-2.6.14-.16.27-.34.4-.51,1.12-.08,2.23-.11,3.35-.02Z"/>
          <path class="cls-7" d="M417.06,241.45c1.17-1.5,2.57-2.79,3.86-4.18,1.52-1.64,3.07-3.27,4.58-4.92.18-.2.32-.29.53-.1.61.54,1.21,1.08,1.82,1.62-1.44,1.25-2.61,2.76-3.95,4.1-1.67,1.68-3.27,3.42-4.9,5.13-.11.12-.2.27-.3.4-.78-.5-1.3-1.21-1.64-2.07Z"/>
          <path class="cls-2" d="M420.58,223.94h-3.77c-.02.05-.05.11-.07.16.7.64,1.41,1.29,2.1,1.94.43.4,1.07.74,1.2,1.22.16.57-.63.87-.98,1.3-1.14,1.41-1.35,1.44-2.6.04-.68-.76-1.38-1.47-2.26-1.99-.48-.75-.45-1.63-.61-2.47-.03-.16.11-.23.29-.23,2.19-.01,4.38-.03,6.57-.04.04,0,.08.04.13.06Z"/>
          <path class="cls-7" d="M429.91,231.62c-.75-.54-1.5-1.08-2.09-1.8.45-.54.91-1.06,1.47-1.49.68-.53.64-.92-.12-1.32-.97-.5-1.52-1.48-2.4-2.09-.33-.23-.62-.53-1.01-.88h16.45c-.77.82-1.47,1.58-2.17,2.32-1.62,1.7-3.26,3.39-4.87,5.1-.28.29-.45.34-.75.05-.62-.61-1.29-1.18-1.91-1.79-.32-.32-.45-.33-.85.01-.67.57-1.04,1.37-1.73,1.89Z"/>
          <path class="cls-7" d="M435.09,235.93c-.59.62-1.2,1.23-1.78,1.86-.2.22-.39.2-.56.03-.66-.67-1.49-1.14-2.09-1.87.57-.55,1.15-1.08,1.7-1.65.3-.31.55-.31.86-.04.62.56,1.24,1.11,1.87,1.67Z"/>
        </g>
      </g>
    </g>
  </g>
</svg>